<?xml version="1.0" encoding="UTF-8"?>
<svg version="1.1" xmlns="http://www.w3.org/2000/svg" width="130" height="114">
<path d="M0 0 C42.9 0 85.8 0 130 0 C130 37.62 130 75.24 130 114 C87.1 114 44.2 114 0 114 C0 76.38 0 38.76 0 0 Z " fill="#FEFDFC" transform="translate(0,0)"/>
<path d="M0 0 C1.06927734 0.47824219 2.13855469 0.95648437 3.24023438 1.44921875 C4.33787109 1.95582031 5.43550781 2.46242188 6.56640625 2.984375 C7.66017578 3.47550781 8.75394531 3.96664063 9.88085938 4.47265625 C29.6182499 13.38478322 29.6182499 13.38478322 31.00390625 17.046875 C31.17125819 20.64494175 30.30637388 21.87020101 28.12890625 24.734375 C25.72310451 26.21800122 23.48728576 27.43288158 20.94140625 28.609375 C20.24104248 28.94525635 19.54067871 29.2811377 18.8190918 29.62719727 C16.59769974 30.68279802 14.36584721 31.71217426 12.12890625 32.734375 C11.3915625 33.07355957 10.65421875 33.41274414 9.89453125 33.76220703 C7.74838489 34.74347918 5.59707958 35.71172808 3.44140625 36.671875 C2.78309814 36.96626465 2.12479004 37.2606543 1.4465332 37.56396484 C-5.06349261 40.39514138 -8.56038908 41.23348696 -15.20849609 38.80810547 C-20.60750771 36.63087705 -25.89865564 34.23584869 -31.18359375 31.796875 C-32.9325293 31.00893555 -32.9325293 31.00893555 -34.71679688 30.20507812 C-35.83634766 29.69009766 -36.95589844 29.17511719 -38.109375 28.64453125 C-39.12040283 28.18183838 -40.13143066 27.71914551 -41.1730957 27.24243164 C-43.97259371 25.6776412 -45.85839994 24.22834566 -47.87109375 21.734375 C-47.93359375 18.234375 -47.93359375 18.234375 -46.87109375 14.734375 C-41.86936959 10.05340496 -35.66104907 7.63694983 -29.48828125 4.87841797 C-27.50205042 3.9870482 -25.52658219 3.07436947 -23.55078125 2.16015625 C-22.27533797 1.58460959 -20.99931415 1.01034739 -19.72265625 0.4375 C-18.57619629 -0.08166992 -17.42973633 -0.60083984 -16.24853516 -1.13574219 C-10.21219326 -3.15512851 -5.72172355 -2.59550022 0 0 Z " fill="#E25909" transform="translate(69.87109375,19.265625)"/>
<path d="M0 0 C1.19560547 0.53818359 2.39121094 1.07636719 3.62304688 1.63085938 C4.86467238 2.20032671 6.10620777 2.76999059 7.34765625 3.33984375 C8.61616625 3.91422975 9.88504363 4.48780514 11.15429688 5.06054688 C14.24328555 6.45822616 17.32830222 7.86401954 20.41015625 9.27734375 C20.41015625 9.93734375 20.41015625 10.59734375 20.41015625 11.27734375 C16.17755098 13.36439931 11.92845389 15.41104505 7.65991211 17.42358398 C6.21275416 18.11251452 4.77053929 18.81193524 3.33374023 19.5222168 C-10.15827584 26.17703096 -10.15827584 26.17703096 -15.30859375 24.55859375 C-16.75755779 23.84074728 -18.18337798 23.07525001 -19.58984375 22.27734375 C-21.62892891 21.3688371 -23.67224459 20.46979098 -25.71875 19.578125 C-27.86549628 18.58681403 -30.0100014 17.59063659 -32.15234375 16.58984375 C-33.25642578 16.07873047 -34.36050781 15.56761719 -35.49804688 15.04101562 C-38.19731873 13.79070355 -40.8944883 12.53607059 -43.58984375 11.27734375 C-39.85367252 6.9200947 -34.34092254 5.16046371 -29.21240234 2.86914062 C-27.35196134 2.03279114 -25.50453016 1.17141998 -23.65625 0.30859375 C-22.47417969 -0.2225 -21.29210937 -0.75359375 -20.07421875 -1.30078125 C-18.99881836 -1.7896582 -17.92341797 -2.27853516 -16.81542969 -2.78222656 C-10.62399228 -4.58735954 -5.68011643 -2.5818711 0 0 Z " fill="#FEF9F7" transform="translate(72.58984375,27.72265625)"/>
<path d="M0 0 C4.50347067 0.47404954 4.50347067 0.47404954 6.26904297 2.34423828 C10.05293319 5.96375076 15.39503062 7.77324124 20.12207031 9.9453125 C21.45268395 10.56293521 22.777397 11.19343957 24.09570312 11.83691406 C32.52519107 16.33402298 32.52519107 16.33402298 41.65234375 16.2265625 C43.12069225 15.52297884 44.56884337 14.77644573 46 14 C48.01653549 13.12845228 50.03632121 12.26440185 52.05859375 11.40625 C54.18713573 10.44243148 56.31341166 9.47359429 58.4375 8.5 C60.06848633 7.77103516 60.06848633 7.77103516 61.73242188 7.02734375 C63.28606445 6.31771484 63.28606445 6.31771484 64.87109375 5.59375 C65.80880615 5.16771484 66.74651855 4.74167969 67.71264648 4.30273438 C70.27881599 3.06763913 70.27881599 3.06763913 72 0 C73.65 0.33 75.3 0.66 77 1 C77.3125 3.75 77.3125 3.75 77 7 C73.50199431 10.33114399 69.72664997 12.23942761 65.34375 14.19921875 C64.7189978 14.47973587 64.09424561 14.76025299 63.45056152 15.04927063 C62.13772374 15.63672065 60.82327853 16.22059035 59.50732422 16.80102539 C57.50183022 17.68669174 55.50266709 18.5855853 53.50390625 19.48632812 C39.2490695 25.84284482 39.2490695 25.84284482 31.49609375 23.00390625 C26.91658478 21.16206931 22.45010473 19.13495822 18 17 C17.33887207 16.68305176 16.67774414 16.36610352 15.99658203 16.03955078 C13.82653088 14.99372517 11.66246857 13.9364074 9.5 12.875 C8.80511475 12.53831299 8.11022949 12.20162598 7.39428711 11.85473633 C0.95587041 8.6564807 0.95587041 8.6564807 -1 6 C-1.25 3.375 -1.25 3.375 -1 1 C-0.67 0.67 -0.34 0.34 0 0 Z " fill="#E25A0A" transform="translate(23,53)"/>
<path d="M0 0 C4.50347067 0.47404954 4.50347067 0.47404954 6.26904297 2.34423828 C10.05293319 5.96375076 15.39503062 7.77324124 20.12207031 9.9453125 C21.45268395 10.56293521 22.777397 11.19343957 24.09570312 11.83691406 C32.52519107 16.33402298 32.52519107 16.33402298 41.65234375 16.2265625 C43.12069225 15.52297884 44.56884337 14.77644573 46 14 C48.01653549 13.12845228 50.03632121 12.26440185 52.05859375 11.40625 C54.18713573 10.44243148 56.31341166 9.47359429 58.4375 8.5 C60.06848633 7.77103516 60.06848633 7.77103516 61.73242188 7.02734375 C63.28606445 6.31771484 63.28606445 6.31771484 64.87109375 5.59375 C65.80880615 5.16771484 66.74651855 4.74167969 67.71264648 4.30273438 C70.27881599 3.06763913 70.27881599 3.06763913 72 0 C73.65 0.33 75.3 0.66 77 1 C77.3125 3.75 77.3125 3.75 77 7 C73.50199431 10.33114399 69.72664997 12.23942761 65.34375 14.19921875 C64.7189978 14.47973587 64.09424561 14.76025299 63.45056152 15.04927063 C62.13772374 15.63672065 60.82327853 16.22059035 59.50732422 16.80102539 C57.50183022 17.68669174 55.50266709 18.5855853 53.50390625 19.48632812 C39.25079127 25.84207705 39.25079127 25.84207705 31.66259766 23.07373047 C26.26358604 20.89650205 20.97243811 18.50147369 15.6875 16.0625 C14.52154297 15.53720703 13.35558594 15.01191406 12.15429688 14.47070312 C11.03474609 13.95572266 9.91519531 13.44074219 8.76171875 12.91015625 C7.245177 12.21611694 7.245177 12.21611694 5.69799805 11.50805664 C2.9151848 9.95259221 1.04024375 8.44186889 -1 6 C-1.3125 3.3125 -1.3125 3.3125 -1 1 C-0.67 0.67 -0.34 0.34 0 0 Z " fill="#E25A0A" transform="translate(23,71)"/>
</svg>
